<svg width="195" height="50" viewBox="0 0 195 50" fill="none" xmlns="http://www.w3.org/2000/svg">
<path d="M7.744 39.816C5.536 39.816 3.808 39.192 2.56 37.944C1.344 36.664 0.736 34.856 0.736 32.52V3.384L8.32 2.568V32.232C8.32 33.288 8.752 33.816 9.616 33.816C10.064 33.816 10.48 33.736 10.864 33.576L12.352 38.952C10.976 39.528 9.44 39.816 7.744 39.816ZM35.2476 31.608C35.2476 32.568 35.3756 33.272 35.6316 33.72C35.9196 34.168 36.3676 34.504 36.9756 34.728L35.3916 39.672C33.8236 39.544 32.5436 39.208 31.5516 38.664C30.5596 38.088 29.7916 37.192 29.2476 35.976C27.5836 38.536 25.0236 39.816 21.5676 39.816C19.0396 39.816 17.0236 39.08 15.5196 37.608C14.0156 36.136 13.2636 34.216 13.2636 31.848C13.2636 29.064 14.2876 26.936 16.3356 25.464C18.3836 23.992 21.3436 23.256 25.2156 23.256H27.8076V22.152C27.8076 20.648 27.4876 19.624 26.8476 19.08C26.2076 18.504 25.0876 18.216 23.4876 18.216C22.6556 18.216 21.6476 18.344 20.4636 18.6C19.2796 18.824 18.0636 19.144 16.8156 19.56L15.0876 14.568C16.6876 13.96 18.3196 13.496 19.9836 13.176C21.6796 12.856 23.2476 12.696 24.6876 12.696C28.3356 12.696 31.0076 13.448 32.7036 14.952C34.3996 16.456 35.2476 18.712 35.2476 21.72V31.608ZM23.7756 34.392C25.5036 34.392 26.8476 33.576 27.8076 31.944V27.432H25.9356C24.2076 27.432 22.9116 27.736 22.0476 28.344C21.2156 28.952 20.7996 29.896 20.7996 31.176C20.7996 32.2 21.0556 33 21.5676 33.576C22.1116 34.12 22.8476 34.392 23.7756 34.392ZM48.8725 13.512V39H41.2885V13.512H48.8725ZM45.0325 0.0719976C46.3445 0.0719976 47.4165 0.487998 48.2485 1.32C49.1125 2.12 49.5445 3.144 49.5445 4.392C49.5445 5.64 49.1125 6.68 48.2485 7.512C47.4165 8.312 46.3445 8.712 45.0325 8.712C43.7205 8.712 42.6485 8.312 41.8165 7.512C40.9845 6.68 40.5685 5.64 40.5685 4.392C40.5685 3.144 40.9845 2.12 41.8165 1.32C42.6485 0.487998 43.7205 0.0719976 45.0325 0.0719976ZM63.8114 12.696C65.6354 12.696 67.3474 12.968 68.9474 13.512C70.5474 14.056 71.9554 14.824 73.1714 15.816L70.3874 20.088C68.3074 18.776 66.2114 18.12 64.0994 18.12C63.1074 18.12 62.3394 18.296 61.7954 18.648C61.2834 18.968 61.0274 19.432 61.0274 20.04C61.0274 20.52 61.1394 20.92 61.3634 21.24C61.6194 21.528 62.1154 21.832 62.8514 22.152C63.5874 22.472 64.7234 22.856 66.2594 23.304C68.9154 24.072 70.8834 25.08 72.1634 26.328C73.4754 27.544 74.1314 29.24 74.1314 31.416C74.1314 33.144 73.6354 34.648 72.6434 35.928C71.6514 37.176 70.2914 38.136 68.5634 38.808C66.8354 39.48 64.9154 39.816 62.8034 39.816C60.6594 39.816 58.6594 39.48 56.8034 38.808C54.9794 38.136 53.4274 37.208 52.1474 36.024L55.8434 31.896C57.9874 33.56 60.2434 34.392 62.6114 34.392C63.7634 34.392 64.6594 34.184 65.2994 33.768C65.9714 33.352 66.3074 32.76 66.3074 31.992C66.3074 31.384 66.1794 30.904 65.9234 30.552C65.6674 30.2 65.1714 29.88 64.4354 29.592C63.6994 29.272 62.5314 28.888 60.9314 28.44C58.4034 27.704 56.5154 26.68 55.2674 25.368C54.0194 24.056 53.3954 22.424 53.3954 20.472C53.3954 19 53.8114 17.688 54.6434 16.536C55.5074 15.352 56.7234 14.424 58.2914 13.752C59.8914 13.048 61.7314 12.696 63.8114 12.696ZM189.713 31.128C190.897 31.128 191.905 31.56 192.737 32.424C193.601 33.256 194.033 34.264 194.033 35.448C194.033 36.664 193.601 37.704 192.737 38.568C191.905 39.4 190.897 39.816 189.713 39.816C188.497 39.816 187.457 39.4 186.593 38.568C185.761 37.704 185.345 36.664 185.345 35.448C185.345 34.264 185.761 33.256 186.593 32.424C187.457 31.56 188.497 31.128 189.713 31.128Z" fill="#141414"/>
<path d="M101.51 15C99.8465 15.672 97.3985 16.008 94.1665 16.008C95.8305 16.712 97.0465 17.576 97.8145 18.6C98.5825 19.624 98.9665 20.952 98.9665 22.584C98.9665 24.216 98.5345 25.688 97.6705 27C96.8065 28.28 95.5585 29.288 93.9265 30.024C92.3265 30.76 90.4385 31.128 88.2625 31.128C87.2385 31.128 86.2625 31.032 85.3345 30.84C85.0785 30.968 84.8705 31.176 84.7105 31.464C84.5825 31.72 84.5185 31.992 84.5185 32.28C84.5185 32.76 84.6945 33.144 85.0465 33.432C85.4305 33.688 86.1825 33.816 87.3025 33.816H91.1425C93.0945 33.816 94.8065 34.136 96.2785 34.776C97.7505 35.416 98.8865 36.296 99.6865 37.416C100.487 38.536 100.887 39.8 100.887 41.208C100.887 43.864 99.7345 45.928 97.4305 47.4C95.1585 48.904 91.8625 49.656 87.5425 49.656C84.4385 49.656 81.9905 49.32 80.1985 48.648C78.4065 48.008 77.1425 47.096 76.4065 45.912C75.7025 44.728 75.3505 43.24 75.3505 41.448H82.1665C82.1665 42.216 82.3105 42.824 82.5985 43.272C82.9185 43.72 83.4785 44.056 84.2785 44.28C85.0785 44.504 86.2305 44.616 87.7345 44.616C89.8145 44.616 91.2545 44.36 92.0545 43.848C92.8545 43.368 93.2545 42.664 93.2545 41.736C93.2545 40.968 92.9505 40.36 92.3425 39.912C91.7345 39.464 90.8225 39.24 89.6065 39.24H85.9105C83.2865 39.24 81.3185 38.776 80.0065 37.848C78.7265 36.888 78.0865 35.672 78.0865 34.2C78.0865 33.272 78.3585 32.376 78.9025 31.512C79.4465 30.616 80.1825 29.88 81.1105 29.304C79.5105 28.44 78.3425 27.432 77.6065 26.28C76.9025 25.096 76.5505 23.672 76.5505 22.008C76.5505 19.16 77.5745 16.904 79.6225 15.24C81.6705 13.544 84.3745 12.696 87.7345 12.696C90.2945 12.76 92.4545 12.504 94.2145 11.928C96.0065 11.352 97.8465 10.504 99.7345 9.384L101.51 15ZM87.9265 17.688C86.7425 17.688 85.7985 18.072 85.0945 18.84C84.4225 19.576 84.0865 20.6 84.0865 21.912C84.0865 23.288 84.4225 24.36 85.0945 25.128C85.7985 25.864 86.7425 26.232 87.9265 26.232C89.1745 26.232 90.1185 25.864 90.7585 25.128C91.4305 24.392 91.7665 23.288 91.7665 21.816C91.7665 19.064 90.4865 17.688 87.9265 17.688ZM114.438 12.696C118.342 12.696 121.398 13.896 123.606 16.296C125.814 18.664 126.918 21.992 126.918 26.28C126.918 29 126.406 31.384 125.382 33.432C124.39 35.448 122.95 37.016 121.062 38.136C119.206 39.256 116.998 39.816 114.438 39.816C110.566 39.816 107.51 38.632 105.27 36.264C103.062 33.864 101.958 30.52 101.958 26.232C101.958 23.512 102.454 21.144 103.446 19.128C104.47 17.08 105.91 15.496 107.766 14.376C109.654 13.256 111.878 12.696 114.438 12.696ZM114.438 18.264C112.902 18.264 111.75 18.92 110.982 20.232C110.214 21.512 109.83 23.512 109.83 26.232C109.83 29.016 110.198 31.048 110.934 32.328C111.702 33.608 112.87 34.248 114.438 34.248C115.974 34.248 117.126 33.608 117.894 32.328C118.662 31.016 119.046 29 119.046 26.28C119.046 23.496 118.662 21.464 117.894 20.184C117.158 18.904 116.006 18.264 114.438 18.264ZM138.197 39.816C135.989 39.816 134.261 39.192 133.013 37.944C131.797 36.664 131.189 34.856 131.189 32.52V3.384L138.773 2.568V32.232C138.773 33.288 139.205 33.816 140.069 33.816C140.517 33.816 140.933 33.736 141.317 33.576L142.805 38.952C141.429 39.528 139.893 39.816 138.197 39.816ZM153.263 13.512V39H145.679V13.512H153.263ZM149.423 0.0719976C150.735 0.0719976 151.807 0.487998 152.639 1.32C153.503 2.12 153.935 3.144 153.935 4.392C153.935 5.64 153.503 6.68 152.639 7.512C151.807 8.312 150.735 8.712 149.423 8.712C148.111 8.712 147.039 8.312 146.207 7.512C145.375 6.68 144.959 5.64 144.959 4.392C144.959 3.144 145.375 2.12 146.207 1.32C147.039 0.487998 148.111 0.0719976 149.423 0.0719976ZM174.154 12.696C176.362 12.696 178.09 13.368 179.338 14.712C180.586 16.056 181.21 17.944 181.21 20.376V39H173.626V21.672C173.626 20.392 173.418 19.512 173.002 19.032C172.618 18.52 172.026 18.264 171.226 18.264C169.69 18.264 168.218 19.368 166.81 21.576V39H159.226V13.512H165.85L166.378 16.536C167.466 15.256 168.634 14.296 169.882 13.656C171.162 13.016 172.586 12.696 174.154 12.696Z" fill="#B09BEE"/>
</svg>
